<?xml version="1.0" encoding="UTF-8"?>
<svg xmlns="http://www.w3.org/2000/svg" width="64" height="64" viewBox="0 0 64 64" fill="none">
  <circle cx="32" cy="32" r="31" fill="white" stroke="#246AF4" stroke-width="2"></circle>
  <path d="M42.5 36.6669V27.3335C42.4996 26.9244 42.3916 26.5225 42.1868 26.1682C41.982 25.814 41.6877 25.5198 41.3333 25.3152L33.1667 20.6485C32.812 20.4438 32.4096 20.3359 32 20.3359C31.5904 20.3359 31.188 20.4438 30.8333 20.6485L22.6667 25.3152C22.3123 25.5198 22.018 25.814 21.8132 26.1682C21.6084 26.5225 21.5004 26.9244 21.5 27.3335V36.6669C21.5004 37.0761 21.6084 37.4779 21.8132 37.8322C22.018 38.1864 22.3123 38.4806 22.6667 38.6852L30.8333 43.3519C31.188 43.5567 31.5904 43.6645 32 43.6645C32.4096 43.6645 32.812 43.5567 33.1667 43.3519L41.3333 38.6852C41.6877 38.4806 41.982 38.1864 42.1868 37.8322C42.3916 37.4779 42.4996 37.0761 42.5 36.6669Z" stroke="#246AF4" stroke-width="2" stroke-linecap="round" stroke-linejoin="round"></path>
  <path d="M21.8149 26.1201L31.9999 32.0118L42.1849 26.1201" stroke="#246AF4" stroke-width="2" stroke-linecap="round" stroke-linejoin="round"></path>
  <path d="M32 43.76V32" stroke="#246AF4" stroke-width="2" stroke-linecap="round" stroke-linejoin="round"></path>
</svg>
