<svg width="53" height="53" viewBox="0 0 53 53" fill="none" xmlns="http://www.w3.org/2000/svg">
<rect width="53" height="53" rx="10" fill="#246AF4"/>
<path d="M34.5 14.75C33.5054 14.75 32.5516 15.1451 31.8483 15.8483C31.1451 16.5516 30.75 17.5054 30.75 18.5V33.5C30.75 34.4946 31.1451 35.4484 31.8483 36.1517C32.5516 36.8549 33.5054 37.25 34.5 37.25C35.4946 37.25 36.4484 36.8549 37.1517 36.1517C37.8549 35.4484 38.25 34.4946 38.25 33.5C38.25 32.5054 37.8549 31.5516 37.1517 30.8483C36.4484 30.1451 35.4946 29.75 34.5 29.75H19.5C18.5054 29.75 17.5516 30.1451 16.8483 30.8483C16.1451 31.5516 15.75 32.5054 15.75 33.5C15.75 34.4946 16.1451 35.4484 16.8483 36.1517C17.5516 36.8549 18.5054 37.25 19.5 37.25C20.4946 37.25 21.4484 36.8549 22.1517 36.1517C22.8549 35.4484 23.25 34.4946 23.25 33.5V18.5C23.25 17.5054 22.8549 16.5516 22.1517 15.8483C21.4484 15.1451 20.4946 14.75 19.5 14.75C18.5054 14.75 17.5516 15.1451 16.8483 15.8483C16.1451 16.5516 15.75 17.5054 15.75 18.5C15.75 19.4946 16.1451 20.4484 16.8483 21.1517C17.5516 21.8549 18.5054 22.25 19.5 22.25H34.5C35.4946 22.25 36.4484 21.8549 37.1517 21.1517C37.8549 20.4484 38.25 19.4946 38.25 18.5C38.25 17.5054 37.8549 16.5516 37.1517 15.8483C36.4484 15.1451 35.4946 14.75 34.5 14.75Z" stroke="white" stroke-width="2" stroke-linecap="round" stroke-linejoin="round"/>
</svg>
